<svg width="1000" height="400" viewBox="0 0 1000 400" fill="none" xmlns="http://www.w3.org/2000/svg">
<rect width="1000" height="400" fill="white"/>
<circle cx="222" cy="202" r="150" fill="#E53E2F"/>
<circle cx="788" cy="202" r="150" fill="#166FBF"/>
<path d="M516.846 282.994C519.73 285.922 523.64 287.566 527.718 287.566C531.796 287.566 535.707 285.922 538.591 282.994L607.795 212.728C610.678 209.8 612.297 205.829 612.297 201.689C612.297 197.548 610.678 193.577 607.795 190.649L538.591 120.383C535.691 117.539 531.806 115.965 527.774 116C523.741 116.036 519.884 117.678 517.033 120.573C514.182 123.468 512.564 127.385 512.529 131.479C512.494 135.573 514.044 139.517 516.846 142.462L558.476 186.074H412.379C408.3 186.074 404.388 187.719 401.504 190.648C398.62 193.576 397 197.547 397 201.689C397 205.83 398.62 209.802 401.504 212.73C404.388 215.658 408.3 217.303 412.379 217.303H558.476L516.846 260.915C513.963 263.843 512.343 267.814 512.343 271.955C512.343 276.095 513.963 280.066 516.846 282.994Z" fill="#008001"/>
</svg>
