<svg width="1000" height="400" viewBox="0 0 1000 400" fill="none" xmlns="http://www.w3.org/2000/svg">
<g clip-path="url(#clip0_102_13)">
<rect width="1000" height="400" fill="white"/>
<circle cx="596" cy="211" r="150" fill="#166FBF"/>
<path d="M350.846 327.995C353.73 330.922 357.64 332.566 361.718 332.566C365.796 332.566 369.707 330.922 372.591 327.995L441.795 257.728C444.678 254.8 446.297 250.829 446.297 246.689C446.297 242.548 444.678 238.578 441.795 235.649L372.591 165.383C369.691 162.539 365.806 160.965 361.774 161.001C357.741 161.036 353.884 162.678 351.033 165.573C348.182 168.469 346.564 172.385 346.529 176.479C346.494 180.573 348.044 184.517 350.846 187.462L392.476 231.074H246.379C242.3 231.074 238.388 232.719 235.504 235.648C232.62 238.576 231 242.548 231 246.689C231 250.83 232.62 254.802 235.504 257.73C238.388 260.658 242.3 262.304 246.379 262.304H392.476L350.846 305.915C347.963 308.844 346.343 312.814 346.343 316.955C346.343 321.095 347.963 325.066 350.846 327.995Z" fill="#008001"/>
<path d="M302.451 205.995C299.567 208.922 295.656 210.566 291.579 210.566C287.501 210.566 283.59 208.922 280.706 205.995L211.502 135.728C208.619 132.8 206.999 128.829 206.999 124.689C206.999 120.548 208.619 116.578 211.502 113.649L280.706 43.3833C283.606 40.5389 287.491 38.965 291.523 39.0006C295.555 39.0362 299.413 40.6784 302.264 43.5735C305.115 46.4686 306.733 50.3849 306.768 54.479C306.803 58.5732 305.253 62.5174 302.451 65.4624L260.821 109.074H406.918C410.997 109.074 414.909 110.719 417.793 113.648C420.677 116.576 422.297 120.548 422.297 124.689C422.297 128.83 420.677 132.802 417.793 135.73C414.909 138.658 410.997 140.304 406.918 140.304H260.821L302.451 183.915C305.334 186.844 306.954 190.814 306.954 194.955C306.954 199.095 305.334 203.066 302.451 205.995Z" fill="#008001"/>
<rect x="259" y="440.18" width="842.879" height="50" transform="rotate(-36.3155 259 440.18)" fill="#E53E2F"/>
</g>
<defs>
<clipPath id="clip0_102_13">
<rect width="1000" height="400" fill="white"/>
</clipPath>
</defs>
</svg>
